<?xml version="1.0" standalone="no"?>
<!DOCTYPE svg PUBLIC "-//W3C//DTD SVG 20010904//EN"
 "http://www.w3.org/TR/2001/REC-SVG-20010904/DTD/svg10.dtd">
<svg version="1.0" xmlns="http://www.w3.org/2000/svg"
 width="512.000000pt" height="512.000000pt" viewBox="0 0 512.000000 512.000000"
 preserveAspectRatio="xMidYMid meet">

<g transform="translate(0.000000,512.000000) scale(0.100000,-0.100000)"
fill="#000000" stroke="none">
<path d="M600 3310 l0 -600 211 0 212 0 -27 -32 c-207 -257 -297 -580 -234
-835 l10 -43 184 0 c183 0 184 0 184 -22 0 -41 33 -153 62 -211 37 -74 131
-168 205 -205 69 -35 172 -62 233 -62 61 0 164 27 233 62 74 37 168 131 205
205 29 58 62 170 62 211 l0 22 605 0 605 0 0 -28 c0 -43 28 -141 58 -202 35
-70 142 -177 212 -212 205 -101 421 -66 580 92 158 159 193 375 92 580 -29 58
-145 183 -181 195 -11 3 -21 10 -21 14 0 24 213 101 325 116 l50 7 -62 58
c-140 132 -334 209 -524 210 l-77 0 -92 214 -91 214 -47 18 c-57 21 -130 93
-161 157 -33 69 -38 157 -13 231 20 58 20 60 1 103 l-18 43 -241 0 -240 0 0
-90 0 -89 132 -3 132 -3 112 -465 c108 -450 111 -465 93 -478 -111 -78 -256
-256 -284 -349 l-6 -23 -359 0 -359 0 6 38 c9 60 52 203 79 262 14 30 46 90
71 133 l47 77 80 0 c98 0 147 20 197 79 82 94 78 235 -8 323 -68 69 -64 69
-576 66 l-457 -3 0 413 0 412 -600 0 -600 0 0 -600z"/>
</g>
</svg>
